<?xml version="1.0" encoding="utf-8"?>
<!-- Generator: Adobe Illustrator 24.0.1, SVG Export Plug-In . SVG Version: 6.00 Build 0)  -->
<svg version="1.1" id="Calque_1" xmlns="http://www.w3.org/2000/svg" xmlns:xlink="http://www.w3.org/1999/xlink" x="0px" y="0px"
	 viewBox="0 0 40 40" style="enable-background:new 0 0 40 40;" xml:space="preserve">
<style type="text/css">
	.st0{fill:none;stroke:#C09C1C;stroke-miterlimit:10;}
	.st1{fill:#C09C1C;stroke:#C09C1C;stroke-miterlimit:10;}
</style>
<path class="st0" d="M2.9,16.5C3.2,15.1,4.7,9.6,10,5.9C15.8,1.9,22,3,23.7,3.4c2.8,0.7,5.5,2,7.7,4c3.8,3.4,5.2,7.5,5.7,9.1
	c-1.4,2.3-4.3,5.9-8.9,8.2C15.8,31.1,4.3,18.2,2.9,16.5z"/>
<path class="st0" d="M3.3,17.4c0.8-0.9,7.4-7.9,18-7.4c9.2,0.5,14.7,6.3,15.6,7.4c0.1,0.8,1.5,9.4-5,15.2
	c-6.2,5.6-16.6,5.9-23.1,0.7c-5.7-4.5-6-11.4-6-12.6"/>
<path class="st0" d="M20.1,34.1c6.4,0,11.5-5.3,11.5-11.8c0-6.5-5.1-11.8-11.5-11.8S8.6,15.8,8.6,22.3C8.6,28.9,13.7,34.1,20.1,34.1
	z"/>
<path class="st1" d="M23.6,16.7c1.1,0,2-0.9,2-2.1s-0.9-2.1-2-2.1s-2,0.9-2,2.1S22.5,16.7,23.6,16.7z"/>
</svg>
