<?xml version="1.0" encoding="utf-8"?>
<!-- Generator: Adobe Illustrator 24.0.1, SVG Export Plug-In . SVG Version: 6.00 Build 0)  -->
<svg version="1.1" id="Calque_1" xmlns="http://www.w3.org/2000/svg" xmlns:xlink="http://www.w3.org/1999/xlink" x="0px" y="0px"
	 viewBox="0 0 33 37" style="enable-background:new 0 0 33 37;" xml:space="preserve">
<style type="text/css">
	.st0{clip-path:url(#SVGID_2_);}
	.st1{clip-path:url(#SVGID_4_);}
	.st2{fill:none;stroke:#F2F2F2;stroke-miterlimit:10;}
</style>
<g>
	<defs>
		<rect id="SVGID_1_" y="0" width="33" height="36"/>
	</defs>
	<clipPath id="SVGID_2_">
		<use xlink:href="#SVGID_1_"  style="overflow:visible;"/>
	</clipPath>
	<g class="st0">
		<g>
			<defs>
				<rect id="SVGID_3_" y="0" width="33" height="36"/>
			</defs>
			<clipPath id="SVGID_4_">
				<use xlink:href="#SVGID_3_"  style="overflow:visible;"/>
			</clipPath>
			<g class="st1">
				<path class="st2" d="M2.3,10.2c0.7-1.1,6.5-9.6,15.7-9c8,0.6,12.8,7.7,13.6,9c0.1,1,1.3,11.5-4.4,18.6
					c-5.4,6.9-14.5,7.2-20.2,0.9c-5-5.5-5.2-13.9-5.2-15.4"/>
				<path class="st2" d="M16.5,29.9c5.4,0,9.8-6.3,9.8-14c0-7.8-4.4-14-9.8-14s-9.8,6.3-9.8,14C6.7,23.6,11.1,29.9,16.5,29.9z"/>
				<path class="st2" d="M19.6,9.2c1,0,1.8-0.5,1.8-1.2c0-0.7-0.8-1.2-1.8-1.2c-1,0-1.8,0.5-1.8,1.2C17.7,8.6,18.5,9.2,19.6,9.2z"/>
			</g>
		</g>
	</g>
</g>
</svg>
